<mxfile host="app.diagrams.net" modified="2023-06-11T16:12:45.060Z" agent="Mozilla/5.0 (X11; Ubuntu; Linux x86_64; rv:109.0) Gecko/20100101 Firefox/113.0" version="21.3.8" etag="iIV4R6KfvChjPFdGyVWN" type="github">
  <diagram name="Page-1" id="HjozR-mryJgOKIIZrl1J">
    <mxGraphModel>
      <root>
        <mxCell id="0" />
        <mxCell id="1" parent="0" />
      </root>
    </mxGraphModel>
  </diagram>
</mxfile>
